<svg xmlns="http://www.w3.org/2000/svg" xmlns:xlink="http://www.w3.org/1999/xlink" viewBox="0 0 107.167 96.167" fill="#fff" fill-rule="evenodd" stroke="#000" stroke-linecap="round" stroke-linejoin="round"><use xlink:href="#A" x="2.083" y="2.083"/><symbol id="A" overflow="visible"><path d="M44.946 2.251c-.691-.413-1.412-.774-2.156-1.081-9.45-3.65-18.152 1.598-21.987 10.833L0 61.888m23.431-.263l15.115-36.152c1.14-2.753-.167-5.91-2.921-7.05s-5.91.168-7.05 2.921L5.792 76.011a11.08 11.08 0 0 0 5.91 14.269 10.87 10.87 0 0 0 14.121-5.812l24.713-59.875c1.836-4.203 2.241-8.893 1.152-13.348m.487 23.596l18.271 43.954C74.279 88.053 83.242 93.724 92.5 89.89c9.265-4.104 11.704-13.967 7.871-23.223L79.806 16.724M63.425 33.501L78.3 69.751c1.14 2.753 4.297 4.061 7.05 2.921s4.061-4.297 2.921-7.05L65.723 10.834a11.08 11.08 0 0 0-14.267-5.91 10.87 10.87 0 0 0-5.875 14.096l.771 1.875" fill="none" stroke-width="4.167"/></symbol></svg>